<?xml version="1.0" ?><svg height="32" id="svg7727" version="1.1" viewBox="0 0 32 32" width="32" xmlns="http://www.w3.org/2000/svg" xmlns:cc="http://creativecommons.org/ns#" xmlns:dc="http://purl.org/dc/elements/1.1/" xmlns:inkscape="http://www.inkscape.org/namespaces/inkscape" xmlns:rdf="http://www.w3.org/1999/02/22-rdf-syntax-ns#" xmlns:sodipodi="http://sodipodi.sourceforge.net/DTD/sodipodi-0.dtd" xmlns:svg="http://www.w3.org/2000/svg"><defs id="defs7729"><pattern height="6" id="EMFhbasepattern" patternUnits="userSpaceOnUse" width="6" x="0" y="0"/><pattern height="6" id="EMFhbasepattern-6" patternUnits="userSpaceOnUse" width="6" x="0" y="0"/><pattern height="6" id="EMFhbasepattern-9" patternUnits="userSpaceOnUse" width="6" x="0" y="0"/><pattern height="6" id="EMFhbasepattern-0" patternUnits="userSpaceOnUse" width="6" x="0" y="0"/><pattern height="6" id="EMFhbasepattern-1" patternUnits="userSpaceOnUse" width="6" x="0" y="0"/><pattern height="6" id="EMFhbasepattern-2" patternUnits="userSpaceOnUse" width="6" x="0" y="0"/><pattern height="6" id="EMFhbasepattern-5" patternUnits="userSpaceOnUse" width="6" x="0" y="0"/><pattern height="6" id="EMFhbasepattern-19" patternUnits="userSpaceOnUse" width="6" x="0" y="0"/><pattern height="6" id="EMFhbasepattern-17" patternUnits="userSpaceOnUse" width="6" x="0" y="0"/><pattern height="6" id="EMFhbasepattern-8" patternUnits="userSpaceOnUse" width="6" x="0" y="0"/><pattern height="6" id="EMFhbasepattern-22" patternUnits="userSpaceOnUse" width="6" x="0" y="0"/><pattern height="6" id="EMFhbasepattern-60" patternUnits="userSpaceOnUse" width="6" x="0" y="0"/><pattern height="6" id="EMFhbasepattern-54" patternUnits="userSpaceOnUse" width="6" x="0" y="0"/><pattern height="6" id="EMFhbasepattern-4" patternUnits="userSpaceOnUse" width="6" x="0" y="0"/><pattern height="6" id="EMFhbasepattern-48" patternUnits="userSpaceOnUse" width="6" x="0" y="0"/><pattern height="6" id="EMFhbasepattern-04" patternUnits="userSpaceOnUse" width="6" x="0" y="0"/><pattern height="6" id="EMFhbasepattern-14" patternUnits="userSpaceOnUse" width="6" x="0" y="0"/><pattern height="6" id="EMFhbasepattern-18" patternUnits="userSpaceOnUse" width="6" x="0" y="0"/><pattern height="6" id="EMFhbasepattern-50" patternUnits="userSpaceOnUse" width="6" x="0" y="0"/><pattern height="6" id="EMFhbasepattern-91" patternUnits="userSpaceOnUse" width="6" x="0" y="0"/><pattern height="6" id="EMFhbasepattern-05" patternUnits="userSpaceOnUse" width="6" x="0" y="0"/><pattern height="6" id="EMFhbasepattern-57" patternUnits="userSpaceOnUse" width="6" x="0" y="0"/><pattern height="6" id="EMFhbasepattern-59" patternUnits="userSpaceOnUse" width="6" x="0" y="0"/><pattern height="6" id="EMFhbasepattern-11" patternUnits="userSpaceOnUse" width="6" x="0" y="0"/><pattern height="6" id="EMFhbasepattern-7" patternUnits="userSpaceOnUse" width="6" x="0" y="0"/><pattern height="6" id="EMFhbasepattern-96" patternUnits="userSpaceOnUse" width="6" x="0" y="0"/><pattern height="6" id="EMFhbasepattern-95" patternUnits="userSpaceOnUse" width="6" x="0" y="0"/></defs><g id="layer1" transform="translate(0,-1020.3622)"><g id="g11941" transform="translate(-1298.4492,1459.1572)"><g id="g11877"><path d="m 1303.6251,-411.8254 18.5625,-16.375" id="path11855" style="fill:none;fill-rule:evenodd;stroke:#000000;stroke-width:1px;stroke-linecap:round;stroke-linejoin:round;stroke-opacity:1"/><path d="m 1317.5001,-409.0129 7.125,-17.32812" id="path11857" style="fill:none;fill-rule:evenodd;stroke:#000000;stroke-width:1px;stroke-linecap:round;stroke-linejoin:round;stroke-opacity:1"/><path d="m 1322.4886,-430.264 c 0.5684,-0.45976 1.5141,-0.1294 2.1876,0.15487 0.7546,0.31851 1.5232,0.87745 1.8341,1.63521 0.2186,0.53259 0.2899,1.30973 -0.1103,1.72354 -0.4219,0.43622 -1.2362,0.3687 -1.812,0.17682 -0.9942,-0.33133 -1.9656,-1.13525 -2.3202,-2.12139 -0.1787,-0.49702 -0.1898,-1.23688 0.2208,-1.56905 z" id="path11859" style="fill:none;fill-rule:evenodd;stroke:#000000;stroke-width:1px;stroke-linecap:butt;stroke-linejoin:miter;stroke-opacity:1"/><path d="m 1322.6082,-430.39117 c 0,0 1.9657,-3.18814 2.9429,-4.02908 0.5541,-0.47685 1.5141,-0.1294 2.1876,0.15487 0.7546,0.31851 1.5232,0.87745 1.8341,1.63521 0.2186,0.53259 0.2899,1.30973 -0.1103,1.72354 l -2.818,3.61001" id="path11861" style="fill:none;fill-rule:evenodd;stroke:#000000;stroke-width:1px;stroke-linecap:butt;stroke-linejoin:miter;stroke-opacity:1"/><path d="m 1322.9968,-436.5396 6.8501,-0.044" id="path11864" style="fill:none;fill-rule:evenodd;stroke:#000000;stroke-width:1px;stroke-linecap:round;stroke-linejoin:round;stroke-opacity:1"/><path d="m 1324.3594,-436.5129 0.1407,3.1875" id="path11866" style="fill:none;fill-rule:evenodd;stroke:#000000;stroke-width:1px;stroke-linecap:butt;stroke-linejoin:miter;stroke-opacity:1"/><path d="m 1328.0938,-436.5285 0.094,7.1719" id="path11868" style="fill:none;fill-rule:evenodd;stroke:#000000;stroke-width:1px;stroke-linecap:butt;stroke-linejoin:miter;stroke-opacity:1"/></g><g id="g11893" transform="matrix(-1,0,0,1,2628.8984,0)"><path d="m 1303.6251,-411.8254 18.5625,-16.375" id="path11879" style="fill:none;fill-rule:evenodd;stroke:#000000;stroke-width:1px;stroke-linecap:round;stroke-linejoin:round;stroke-opacity:1"/><path d="m 1317.5001,-409.0129 7.0937,-17.42187" id="path11881" style="fill:none;fill-rule:evenodd;stroke:#000000;stroke-width:1px;stroke-linecap:round;stroke-linejoin:round;stroke-opacity:1"/><path d="m 1322.4886,-430.264 c 0.5684,-0.45976 1.5141,-0.1294 2.1876,0.15487 0.7546,0.31851 1.5232,0.87745 1.8341,1.63521 0.2186,0.53259 0.2899,1.30973 -0.1103,1.72354 -0.4219,0.43622 -1.2362,0.3687 -1.812,0.17682 -0.9942,-0.33133 -1.9656,-1.13525 -2.3202,-2.12139 -0.1787,-0.49702 -0.1898,-1.23688 0.2208,-1.56905 z" id="path11883" style="fill:none;fill-rule:evenodd;stroke:#000000;stroke-width:1px;stroke-linecap:butt;stroke-linejoin:miter;stroke-opacity:1"/><path d="m 1322.6082,-430.39117 c 0,0 1.9657,-3.18814 2.9429,-4.02908 0.5541,-0.47685 1.5141,-0.1294 2.1876,0.15487 0.7546,0.31851 1.5232,0.87745 1.8341,1.63521 0.2186,0.53259 0.2899,1.30973 -0.1103,1.72354 l -2.818,3.61001" id="path11885" style="fill:none;fill-rule:evenodd;stroke:#000000;stroke-width:1px;stroke-linecap:butt;stroke-linejoin:miter;stroke-opacity:1"/><path d="m 1322.9968,-436.5396 6.8501,-0.044" id="path11887" style="fill:none;fill-rule:evenodd;stroke:#000000;stroke-width:1px;stroke-linecap:round;stroke-linejoin:round;stroke-opacity:1"/><path d="m 1324.3594,-436.5129 0.1407,3.1875" id="path11889" style="fill:none;fill-rule:evenodd;stroke:#000000;stroke-width:1px;stroke-linecap:butt;stroke-linejoin:miter;stroke-opacity:1"/><path d="m 1328.0938,-436.5285 0.094,7.1719" id="path11891" style="fill:none;fill-rule:evenodd;stroke:#000000;stroke-width:1px;stroke-linecap:butt;stroke-linejoin:miter;stroke-opacity:1"/></g><path d="m 1323.3615,-410.92905 c 0,0.53086 -0.3419,0.95017 -0.8728,0.95018 -0.5309,4e-5 -1.0497,-0.41928 -1.0497,-0.95018 0,-0.5309 0.4304,-0.96126 0.9613,-0.96122 0.5309,10e-6 0.9612,0.43036 0.9612,0.96122 z" id="path11895" style="opacity:1;fill:none;fill-opacity:1;stroke:#000000;stroke-width:1.00157475;stroke-linecap:round;stroke-linejoin:round;stroke-miterlimit:4;stroke-dasharray:none;stroke-opacity:1"/><path d="m 1326.7644,-421.09922 c 0,-0.5309 -0.3419,-0.9502 -0.8728,-0.9502 -0.5309,0 -1.0497,0.4193 -1.0497,0.9502 0,0.5309 0.4304,0.9613 0.9613,0.9612 0.5309,0 0.9612,-0.4303 0.9612,-0.9612 z" id="path11895-0" style="opacity:1;fill:none;fill-opacity:1;stroke:#000000;stroke-width:1.00157475;stroke-linecap:round;stroke-linejoin:round;stroke-miterlimit:4;stroke-dasharray:none;stroke-opacity:1"/><path d="m 1302.9138,-417.23711 c 0,-0.5309 0.3419,-0.9502 0.8728,-0.9502 0.5309,0 1.0497,0.4193 1.0497,0.9502 0,0.5309 -0.4304,0.9613 -0.9613,0.9612 -0.5309,0 -0.9612,-0.4303 -0.9612,-0.9612 z" id="path11895-4" style="opacity:1;fill:none;fill-opacity:1;stroke:#000000;stroke-width:1.00157475;stroke-linecap:round;stroke-linejoin:round;stroke-miterlimit:4;stroke-dasharray:none;stroke-opacity:1"/><path d="m 1312.2797,-415.01697 1.6794,-0.7955 0.7734,-1.8562 1.1048,1.90037 1.812,0.86173 -2.055,0.906 -0.906,1.9667 -0.8839,-2.0772 z" id="path11919" style="fill:none;fill-rule:evenodd;stroke:#000000;stroke-width:1px;stroke-linecap:round;stroke-linejoin:round;stroke-opacity:1"/></g></g></svg>